<svg width="63" height="62" viewBox="0 0 63 62" fill="none" xmlns="http://www.w3.org/2000/svg">
<path d="M24.1066 38.1066C28.2487 42.2487 35.1066 42.1066 39.1066 38.1066C43.1066 34.1066 43.2487 27.2487 39.1066 23.1066C34.9645 18.9645 28.2487 18.9645 24.1066 23.1066C19.9645 27.2487 19.9645 33.9645 24.1066 38.1066Z" stroke="white" stroke-opacity="0.6" stroke-width="4"/>
<path d="M8.5 37.5L11.5 43.5L8.5 48.5L14 55L20 51.5L25 54L26.5 59.5H36.5L37.5 53.5L42.5 51.5L48 55L55 49.5L51.5 43.5L54 38L60.5 36V27L54.5 25.5L52 20.5L55 14L48.5 7.5L43 11.5L38 9L36 2.5H27.5L26.5 7.5L20.5 10.5L14.5 7.5L7.5 14L10 19V24.5L2.5 27V35.5L8.5 37.5Z" stroke="white" stroke-opacity="0.6" stroke-width="4"/>
</svg>
