<svg width="52" height="52" viewBox="0 0 52 52" fill="none" xmlns="http://www.w3.org/2000/svg">
<path d="M26 0.5C29.5316 0.5 32.8443 1.17001 35.9424 2.50684C39.0499 3.84782 41.7477 5.66562 44.041 7.95898C46.3344 10.2524 48.1522 12.9501 49.4932 16.0576C50.83 19.1556 51.5 22.4684 51.5 26C51.5 29.5315 50.8299 32.8435 49.4932 35.9414C48.1522 39.0491 46.3345 41.7475 44.041 44.041C41.7477 46.3344 39.0499 48.1522 35.9424 49.4932C32.8443 50.83 29.5316 51.5 26 51.5C22.4684 51.5 19.1557 50.83 16.0576 49.4932C12.9501 48.1522 10.2523 46.3344 7.95898 44.041C5.6655 41.7475 3.84785 39.0491 2.50684 35.9414C1.1701 32.8435 0.500004 29.5315 0.5 26C0.5 22.4684 1.17001 19.1556 2.50684 16.0576C3.84782 12.9501 5.66562 10.2524 7.95898 7.95898C10.2523 5.66562 12.9501 3.84782 16.0576 2.50684C19.1557 1.17001 22.4684 0.5 26 0.5ZM26 38.5C23.6541 38.5 21.4343 38.8428 19.3438 39.5322C17.2571 40.2204 15.3451 41.2098 13.6113 42.499L13.0723 42.9004L13.6113 43.3008C15.3451 44.59 17.2571 45.5794 19.3438 46.2676C21.4343 46.957 23.6541 47.2998 26 47.2998C28.3459 47.2998 30.5657 46.957 32.6562 46.2676C34.7429 45.5794 36.6549 44.59 38.3887 43.3008L38.9277 42.9004L38.3887 42.499C36.6549 41.2098 34.7429 40.2204 32.6562 39.5322C30.5657 38.8428 28.3459 38.5 26 38.5ZM26 4.7002C20.1049 4.7002 15.0699 6.77778 10.9238 10.9238C6.77779 15.0699 4.7002 20.1049 4.7002 26C4.7002 28.6128 5.1317 31.0777 5.99902 33.3906C6.86381 35.6967 8.07434 37.7628 9.62988 39.585L9.9375 39.9453L10.3135 39.6572C12.4806 38 14.9047 36.6917 17.5879 35.7334C20.2622 34.7783 23.0655 34.2998 26 34.2998C28.9345 34.2998 31.7378 34.7783 34.4121 35.7334C37.0953 36.6917 39.5194 38 41.6865 39.6572L42.0625 39.9453L42.3701 39.585C43.9257 37.7628 45.1362 35.6967 46.001 33.3906C46.8683 31.0777 47.2998 28.6128 47.2998 26C47.2998 20.1049 45.2222 15.0699 41.0762 10.9238C36.9301 6.77778 31.8951 4.7002 26 4.7002ZM26 10.9004C28.4285 10.9004 30.4561 11.7276 32.1143 13.3857C33.7724 15.0439 34.5996 17.0715 34.5996 19.5C34.5996 21.9285 33.7724 23.9561 32.1143 25.6143C30.4561 27.2724 28.4285 28.0996 26 28.0996C23.5715 28.0996 21.5439 27.2724 19.8857 25.6143C18.2276 23.9561 17.4004 21.9285 17.4004 19.5C17.4004 17.0715 18.2276 15.0439 19.8857 13.3857C21.5439 11.7276 23.5715 10.9004 26 10.9004ZM26 15.0996C24.7526 15.0996 23.6901 15.513 22.8516 16.3516C22.013 17.1901 21.5996 18.2527 21.5996 19.5C21.5996 20.7473 22.013 21.8099 22.8516 22.6484C23.6901 23.487 24.7527 23.9004 26 23.9004C27.2473 23.9004 28.3099 23.487 29.1484 22.6484C29.987 21.8099 30.4004 20.7473 30.4004 19.5C30.4004 18.2527 29.987 17.1901 29.1484 16.3516C28.3099 15.513 27.2473 15.0996 26 15.0996Z" fill="#33A1E0" stroke="black"/>
</svg>
