<svg width="81" height="60" viewBox="0 0 81 60" fill="none" xmlns="http://www.w3.org/2000/svg">
<path d="M2.38269 58.0034H22.0506C22.0506 58.0034 20.8994 50.8573 22.0506 46.5177C23.4083 41.4002 29.3351 35.0319 29.3351 35.0319C29.3351 35.0319 10.2302 32.7283 4.56802 40.7748C0.647145 46.3467 2.38269 58.0034 2.38269 58.0034Z" stroke="white" stroke-opacity="0.6" stroke-width="4"/>
<path d="M76.688 57.9974H31.5246C24.2424 57.9974 36.6237 34.3081 46.8219 34.3081H61.3907C70.8638 34.3081 83.2473 57.9974 76.688 57.9974Z" stroke="white" stroke-opacity="0.6" stroke-width="4"/>
<path d="M67.9434 16.3617C67.3556 23.4855 61.3533 28.3837 54.103 28.5653C46.6383 28.7522 40.1376 23.6962 39.5341 16.3617C38.8839 8.45839 46.0595 1.80129 54.103 2.00453C61.948 2.20277 68.5794 8.65358 67.9434 16.3617Z" stroke="white" stroke-opacity="0.6" stroke-width="4"/>
<path d="M35.1682 16.355C34.9725 23.4887 29.2951 29.0837 22.0562 29.2765C14.6135 29.4747 8.41695 23.6896 8.2158 16.355C8.00928 8.825 14.4151 2.51221 22.0562 2.71572C29.4989 2.91396 35.3693 9.02048 35.1682 16.355Z" stroke="white" stroke-opacity="0.6" stroke-width="4"/>
</svg>
